<svg xmlns="http://www.w3.org/2000/svg" data-name="Layer 1" viewBox="0 0 100 100" x="0px" y="0px"><defs><style>.cls-1{fill-rule:evenodd;}</style></defs><title>a</title><path class="cls-1" d="M40.8,89.509a18.692,18.692,0,0,0,5.492-13.258c0-7.323-8.932-19.4-15.4-28.138-1.232-1.666-2.377-3.214-3.354-4.583-.976,1.369-2.121,2.917-3.353,4.583-6.464,8.739-15.4,20.815-15.4,28.138A18.75,18.75,0,0,0,40.8,89.509Zm-22.424-.716a1.259,1.259,0,1,1,1.482-2.036l.036.026a1.259,1.259,0,0,1-1.483,2.036l-.035-.026ZM12,76.251a1.266,1.266,0,0,1,2.531,0A12.884,12.884,0,0,0,17.5,84.533a1.264,1.264,0,1,1-1.947,1.611A15.561,15.561,0,0,1,12,76.251ZM47.1,19.088H45.719a6.14,6.14,0,0,0,0,12.28H85.072a6.14,6.14,0,0,0,0-12.28H84.02v0A1.281,1.281,0,0,1,83.565,19a1.262,1.262,0,0,1-.721-1.631,4.482,4.482,0,0,0,.224-.789,4.567,4.567,0,0,0,.072-.828,4.491,4.491,0,0,0-6.682-3.911,1.262,1.262,0,0,1-1.894-.647A9.15,9.15,0,0,0,57.773,9.938h0a1.263,1.263,0,0,1-1.427.642,6.46,6.46,0,0,0-8.037,6.264c0,.165,0,.3.01.412s.016.221.025.31a1.28,1.28,0,0,1,.026.257A1.265,1.265,0,0,1,47.1,19.088ZM79.967,39.807A1.265,1.265,0,1,0,82,41.316l1.51-2.03a1.265,1.265,0,1,0-2.03-1.51l-1.51,2.031Zm-6.039,8.121a1.265,1.265,0,1,0,2.03,1.51l1.51-2.031a1.265,1.265,0,1,0-2.03-1.509l-1.51,2.03Zm-6.039,8.121a1.265,1.265,0,1,0,2.03,1.51l1.51-2.03a1.265,1.265,0,1,0-2.03-1.51l-1.51,2.03Zm-5.581,7.506a1.265,1.265,0,1,0,2.03,1.51L65.39,63.65a1.265,1.265,0,1,0-2.03-1.51l-1.052,1.415ZM67.63,39.807a1.265,1.265,0,1,0,2.031,1.509l1.509-2.03a1.265,1.265,0,1,0-2.03-1.51l-1.51,2.031Zm-6.038,8.121a1.265,1.265,0,1,0,2.03,1.51l1.51-2.031A1.265,1.265,0,1,0,63.1,45.9l-1.509,2.03Zm-6.039,8.121a1.265,1.265,0,1,0,2.03,1.51l1.51-2.03a1.265,1.265,0,0,0-2.031-1.51l-1.509,2.03Zm-5.582,7.506A1.265,1.265,0,1,0,52,65.065l1.053-1.415a1.265,1.265,0,0,0-2.031-1.51l-1.052,1.415Zm5.323-23.748a1.265,1.265,0,1,0,2.03,1.509l1.51-2.03a1.265,1.265,0,1,0-2.03-1.51l-1.51,2.031Zm-6.039,8.121a1.265,1.265,0,1,0,2.03,1.51l1.51-2.031a1.265,1.265,0,1,0-2.03-1.509l-1.51,2.03Zm-6.039,8.121,1.51-2.03a1.265,1.265,0,1,1,2.03,1.51l-1.51,2.03a1.265,1.265,0,1,1-2.03-1.51Zm-.259-16.242a1.265,1.265,0,1,0,2.031,1.509l1.51-2.03a1.265,1.265,0,0,0-2.031-1.51l-1.51,2.031Zm-6.038,8.121,1.509-2.03a1.265,1.265,0,1,1,2.031,1.509l-1.51,2.031a1.265,1.265,0,1,1-2.03-1.51Z"/></svg>